<svg width="25" height="25" viewBox="0 0 25 25" fill="none" xmlns="http://www.w3.org/2000/svg">
<path d="M10.6178 17.2796C10.4865 17.2798 10.3565 17.2542 10.2351 17.2041C10.1138 17.154 10.0036 17.0804 9.91076 16.9876L5.66876 12.7446C5.57319 12.6524 5.49693 12.5421 5.44444 12.4201C5.39194 12.2982 5.36427 12.167 5.36302 12.0342C5.36177 11.9014 5.38698 11.7697 5.43718 11.6468C5.48737 11.5238 5.56154 11.4121 5.65537 11.3182C5.74919 11.2242 5.86079 11.1499 5.98365 11.0995C6.10651 11.0492 6.23817 11.0238 6.37095 11.0248C6.50373 11.0259 6.63497 11.0534 6.75701 11.1057C6.87905 11.158 6.98945 11.2341 7.08176 11.3296L10.6168 14.8646L16.9818 8.50156C17.1693 8.31392 17.4236 8.20845 17.6889 8.20836C17.9542 8.20827 18.2086 8.31355 18.3963 8.50106C18.5839 8.68857 18.6894 8.94294 18.6895 9.20821C18.6896 9.47348 18.5843 9.72792 18.3968 9.91556L11.3248 16.9876C11.2319 17.0804 11.1217 17.154 11.0004 17.2041C10.8791 17.2542 10.749 17.2798 10.6178 17.2796Z" fill="#2FAB73"/>
</svg>
